<svg width="91" height="186" viewBox="0 0 91 186" fill="none" xmlns="http://www.w3.org/2000/svg">
<path d="M90.1575 1C90.1575 0.861929 90.0455 0.75 89.9075 0.75C89.7694 0.75 89.6575 0.861929 89.6575 1H90.1575ZM83.2667 38.5956L83.0254 38.5304L83.2667 38.5956ZM74.8798 56.5071L75.0329 56.7048L74.8798 56.5071ZM69.3238 60.899L69.473 61.0996L69.473 61.0996L69.3238 60.899ZM59.2965 65.3174L59.1865 65.0929L59.2965 65.3174ZM50.9625 80.3715L50.7136 80.3945L50.9625 80.3715ZM57.5239 96.4575L57.737 96.3267L57.737 96.3267L57.5239 96.4575ZM59.0848 103.442L58.8497 103.357L58.8497 103.357L59.0848 103.442ZM54.4813 111.485L54.2438 111.407L54.4813 111.485ZM50.7508 120.163L50.9664 120.29L50.7508 120.163ZM37.5752 131.725L37.7543 131.899L37.7543 131.899L37.5752 131.725ZM26.569 141.752L26.3853 141.583L26.569 141.752ZM17.9969 151.753L18.1364 151.96L18.1364 151.96L17.9969 151.753ZM12.2821 154.928L12.1207 154.737L12.1207 154.737L12.2821 154.928ZM1.38175 152.441L1.17278 152.304L1.17278 152.304L1.38175 152.441ZM14.6633 149.372L14.8729 149.236L14.6633 149.372ZM15.1395 175.088L14.9368 174.942L15.1395 175.088ZM10.5888 179.48L10.7952 179.621L10.7952 179.621L10.5888 179.48ZM6.60838 185.063C6.60838 185.201 6.72031 185.313 6.85838 185.313L9.10838 185.313C9.24646 185.313 9.35838 185.201 9.35838 185.063C9.35838 184.924 9.24646 184.813 9.10838 184.813L7.10838 184.813L7.10838 182.813C7.10838 182.674 6.99646 182.563 6.85838 182.563C6.72031 182.563 6.60838 182.674 6.60838 182.813L6.60838 185.063ZM7.03516 185.239C7.42117 184.853 7.75558 184.457 8.05677 184.054L7.65606 183.755C7.36741 184.142 7.04855 184.519 6.68161 184.886L7.03516 185.239ZM8.75545 183.024C8.97396 182.673 9.17991 182.318 9.38354 181.962L8.94945 181.714C8.74658 182.069 8.54444 182.417 8.33111 182.759L8.75545 183.024ZM9.99122 180.902C10.2405 180.477 10.5023 180.05 10.7952 179.621L10.3825 179.339C10.0806 179.781 9.81236 180.219 9.55981 180.65L9.99122 180.902ZM10.7952 179.621C11.0615 179.232 11.3679 178.887 11.6996 178.566L11.3519 178.206C11.0022 178.545 10.6721 178.915 10.3825 179.339L10.7952 179.621ZM12.5511 177.819C12.85 177.575 13.1475 177.345 13.452 177.1L13.1392 176.71C12.8449 176.946 12.5342 177.188 12.2353 177.431L12.5511 177.819ZM14.3446 176.341C14.704 176.009 15.0442 175.647 15.3421 175.235L14.9368 174.942C14.6634 175.32 14.3475 175.657 14.0049 175.974L14.3446 176.341ZM15.3421 175.235C15.9533 174.388 16.4797 173.484 16.9253 172.536L16.4727 172.324C16.0396 173.245 15.5287 174.122 14.9368 174.942L15.3421 175.235ZM17.8342 170.207C18.0844 169.418 18.2872 168.609 18.4446 167.785L17.9535 167.692C17.7997 168.496 17.6016 169.287 17.3576 170.056L17.8342 170.207ZM18.7795 165.313C18.9484 163.258 18.8592 161.156 18.5378 159.1L18.0438 159.177C18.3594 161.196 18.4467 163.258 18.2811 165.272L18.7795 165.313ZM18.0421 156.658C17.8388 155.847 17.5992 155.05 17.3249 154.272L16.8533 154.438C17.1224 155.201 17.3575 155.984 17.5571 156.78L18.0421 156.658ZM16.3825 151.964C15.9345 151.007 15.4301 150.093 14.8729 149.236L14.4536 149.508C14.9976 150.345 15.4909 151.239 15.9296 152.176L16.3825 151.964ZM14.8729 149.236C14.1998 148.2 13.0444 147.751 11.7301 147.676L11.7015 148.175C12.9285 148.245 13.9001 148.656 14.4536 149.508L14.8729 149.236ZM8.95223 147.957C8.07101 148.159 7.17465 148.454 6.31638 148.807L6.50644 149.269C7.34297 148.925 8.21302 148.639 9.0638 148.445L8.95223 147.957ZM3.84192 150.043C2.63825 150.766 1.65466 151.57 1.17278 152.304L1.59072 152.578C2.00983 151.94 2.91484 151.183 4.09937 150.472L3.84192 150.043ZM1.17278 152.304C0.632798 153.126 0.645681 153.944 1.01054 154.685L1.45916 154.464C1.16731 153.871 1.15419 153.243 1.59072 152.578L1.17278 152.304ZM2.2312 156.129C2.69093 156.506 3.22384 156.845 3.77794 157.138L4.01137 156.695C3.47981 156.415 2.97647 156.094 2.54823 155.743L2.2312 156.129ZM5.45943 157.87C6.32617 158.174 7.15084 158.353 7.73147 158.353V157.853C7.23192 157.853 6.46831 157.694 5.62492 157.398L5.45943 157.87ZM7.73147 158.353C8.22414 158.353 8.67418 158.233 9.08888 158.038L8.8761 157.586C8.5177 157.754 8.14003 157.853 7.73147 157.853V158.353ZM10.0108 157.456C10.2884 157.238 10.5515 156.996 10.8036 156.747L10.4526 156.391C10.2078 156.632 9.95933 156.861 9.70201 157.063L10.0108 157.456ZM11.5316 156.001C11.8442 155.676 12.1432 155.373 12.4435 155.119L12.1207 154.737C11.7986 155.009 11.4836 155.33 11.1715 155.654L11.5316 156.001ZM12.4435 155.119C12.8208 154.8 13.2169 154.529 13.6265 154.287L13.372 153.857C12.9434 154.11 12.5234 154.397 12.1207 154.737L12.4435 155.119ZM14.6605 153.737C15.015 153.565 15.3731 153.402 15.7353 153.236L15.5268 152.781C15.1672 152.946 14.8026 153.112 14.4417 153.288L14.6605 153.737ZM16.8199 152.72C17.2648 152.495 17.7068 152.249 18.1364 151.96L17.8573 151.546C17.4502 151.819 17.0276 152.055 16.5946 152.274L16.8199 152.72ZM18.1364 151.96C18.9651 151.403 19.7268 150.716 20.4422 149.956L20.0781 149.613C19.3803 150.355 18.6467 151.014 17.8573 151.546L18.1364 151.96ZM22.0133 148.106C22.507 147.474 22.9858 146.822 23.4572 146.172L23.0525 145.878C22.5817 146.527 22.1073 147.174 21.6193 147.798L22.0133 148.106ZM24.8722 144.231C25.4905 143.403 26.1103 142.618 26.7527 141.922L26.3853 141.583C25.7257 142.297 25.094 143.098 24.4716 143.932L24.8722 144.231ZM26.7527 141.922C27.5146 141.096 28.3171 140.314 29.1441 139.556L28.8061 139.187C27.9719 139.952 27.1589 140.744 26.3853 141.583L26.7527 141.922ZM31.1691 137.77C31.8542 137.183 32.544 136.604 33.234 136.019L32.9106 135.638C32.2233 136.22 31.53 136.803 30.8439 137.39L31.1691 137.77ZM35.2871 134.243C36.132 133.49 36.9604 132.715 37.7543 131.899L37.396 131.551C36.6128 132.356 35.7936 133.122 34.9545 133.87L35.2871 134.243ZM37.7543 131.899C38.213 131.428 38.6988 130.981 39.2046 130.551L38.8808 130.17C38.3651 130.608 37.8674 131.066 37.396 131.551L37.7543 131.899ZM40.4445 129.554C40.8653 129.232 41.2945 128.918 41.7289 128.607L41.4378 128.2C41.0006 128.513 40.5669 128.831 40.1408 129.157L40.4445 129.554ZM43.0375 127.684C44.1348 126.918 45.2432 126.15 46.2968 125.327L45.989 124.933C44.9482 125.746 43.8518 126.506 42.7513 127.275L43.0375 127.684ZM47.5449 124.298C47.9521 123.941 48.3468 123.571 48.725 123.184L48.3674 122.834C47.9994 123.211 47.6142 123.572 47.2154 123.921L47.5449 124.298ZM49.806 121.967C50.227 121.442 50.6164 120.885 50.9664 120.29L50.5353 120.036C50.1985 120.61 49.8231 121.147 49.416 121.654L49.806 121.967ZM50.9664 120.29C51.3358 119.661 51.6789 119.026 52.0002 118.385L51.5532 118.161C51.2365 118.793 50.8987 119.418 50.5353 120.036L50.9664 120.29ZM52.7389 116.818C52.9731 116.29 53.1953 115.758 53.4081 115.222L52.9434 115.037C52.7328 115.568 52.5131 116.094 52.2818 116.615L52.7389 116.818ZM54.0188 113.605C54.2615 112.931 54.4934 112.25 54.7188 111.563L54.2438 111.407C54.0194 112.091 53.7891 112.767 53.5484 113.435L54.0188 113.605ZM54.7188 111.563C54.9374 110.897 55.2308 110.279 55.5686 109.686L55.1342 109.439C54.7841 110.053 54.4752 110.702 54.2438 111.407L54.7188 111.563ZM56.4649 108.278C56.7849 107.812 57.1107 107.362 57.437 106.896L57.0274 106.609C56.7084 107.065 56.3731 107.529 56.053 107.994L56.4649 108.278ZM58.3764 105.469C58.7424 104.859 59.07 104.219 59.32 103.527L58.8497 103.357C58.6136 104.011 58.3022 104.621 57.9477 105.212L58.3764 105.469ZM59.32 103.527C59.5376 102.924 59.6565 102.354 59.6931 101.806L59.1942 101.773C59.1609 102.271 59.0526 102.795 58.8497 103.357L59.32 103.527ZM59.6076 100.393C59.5214 99.9314 59.3821 99.4854 59.2053 99.0472L58.7417 99.2344C58.9085 99.6478 59.0371 100.062 59.1161 100.485L59.6076 100.393ZM58.6047 97.7987C58.3396 97.3136 58.043 96.8255 57.737 96.3267L57.3108 96.5882C57.617 97.0873 57.9076 97.5657 58.166 98.0385L58.6047 97.7987ZM57.737 96.3267C57.391 95.7629 57.0462 95.1961 56.7059 94.6256L56.2765 94.8817C56.6182 95.4547 56.9642 96.0234 57.3108 96.5882L57.737 96.3267ZM55.9026 93.2537C55.6391 92.7943 55.3803 92.3323 55.1279 91.8673L54.6885 92.1059C54.943 92.5747 55.2037 93.0401 55.4688 93.5025L55.9026 93.2537ZM54.3911 90.4623C53.7938 89.2793 53.2479 88.0761 52.7805 86.8477L52.3132 87.0255C52.7879 88.2733 53.3413 89.4925 53.9447 90.6876L54.3911 90.4623ZM52.2575 85.3564C52.0971 84.8552 51.951 84.3496 51.8211 83.8393L51.3365 83.9627C51.4691 84.4833 51.618 84.9985 51.7813 85.5088L52.2575 85.3564ZM51.4823 82.2992C51.3637 81.6569 51.2723 81.0069 51.2114 80.3485L50.7136 80.3945C50.7759 81.0686 50.8694 81.7335 50.9907 82.39L51.4823 82.2992ZM51.2114 80.3485C51.1493 79.6762 51.1393 78.9971 51.1786 78.3175L50.6794 78.2887C50.6388 78.9922 50.649 79.6964 50.7136 80.3945L51.2114 80.3485ZM51.3639 76.7003C51.4551 76.1665 51.5755 75.6357 51.7236 75.1111L51.2425 74.9753C51.0897 75.5165 50.9653 76.0645 50.871 76.616L51.3639 76.7003ZM52.2464 73.5668C52.7468 72.3036 53.4079 71.0992 54.2059 70.0018L53.8015 69.7078C52.9786 70.8394 52.2973 72.0808 51.7816 73.3826L52.2464 73.5668ZM55.2315 68.7353C55.5961 68.3306 55.9812 67.9466 56.3854 67.5864L56.0528 67.2131C55.6346 67.5857 55.2365 67.9827 54.86 68.4006L55.2315 68.7353ZM57.66 66.5759C58.2156 66.1862 58.7988 65.8395 59.4065 65.5419L59.1865 65.0929C58.5546 65.4024 57.949 65.7625 57.3729 66.1665L57.66 66.5759ZM59.4065 65.5419C60.1436 65.1808 60.9072 64.8707 61.6847 64.5804L61.5098 64.112C60.7241 64.4053 59.944 64.7219 59.1865 65.0929L59.4065 65.5419ZM63.5622 63.909C64.1917 63.6874 64.8233 63.4627 65.447 63.2195L65.2653 62.7537C64.6502 62.9935 64.0255 63.2159 63.3962 63.4373L63.5622 63.909ZM67.2987 62.4129C68.0515 62.0409 68.7818 61.6138 69.473 61.0996L69.1746 60.6985C68.5124 61.1911 67.809 61.6031 67.0772 61.9646L67.2987 62.4129ZM69.473 61.0996C69.9045 60.7786 70.3318 60.4502 70.7563 60.1176L70.4478 59.724C70.0258 60.0548 69.6019 60.3805 69.1746 60.6985L69.473 61.0996ZM71.767 59.3152C72.1022 59.0464 72.4365 58.7763 72.7704 58.5066L72.4562 58.1177C72.1222 58.3875 71.7886 58.657 71.4542 58.9251L71.767 59.3152ZM73.7726 57.6996C74.1915 57.3641 74.6111 57.0315 75.0329 56.7048L74.7267 56.3095C74.302 56.6385 73.8802 56.9728 73.46 57.3093L73.7726 57.6996ZM75.0329 56.7048C75.6602 56.2188 76.2321 55.6936 76.7555 55.1352L76.3907 54.7932C75.8847 55.3331 75.3323 55.8404 74.7267 56.3095L75.0329 56.7048ZM77.9454 53.7026C78.3139 53.2028 78.6533 52.6841 78.9676 52.1499L78.5366 51.8963C78.2304 52.4168 77.9004 52.921 77.543 53.4059L77.9454 53.7026ZM79.8359 50.5105C80.4943 49.131 81.0252 47.6769 81.4858 46.198L81.0084 46.0494C80.5523 47.5137 80.0296 48.9439 79.3846 50.2952L79.8359 50.5105ZM82.004 44.4305C82.1683 43.8385 82.3252 43.2453 82.4781 42.654L81.994 42.5288C81.8415 43.1184 81.6854 43.7086 81.5222 44.2967L82.004 44.4305ZM82.9319 40.8757C83.1222 40.1273 83.3117 39.3873 83.508 38.6609L83.0254 38.5304C82.828 39.2608 82.6377 40.004 82.4474 40.7525L82.9319 40.8757ZM83.508 38.6609C83.7617 37.7223 84.0144 36.7885 84.2647 35.8588L83.7819 35.7288C83.5316 36.6582 83.2791 37.5916 83.0254 38.5304L83.508 38.6609ZM84.8653 33.6159C85.065 32.8654 85.2625 32.117 85.4571 31.3702L84.9733 31.2441C84.7789 31.9899 84.5816 32.7375 84.3821 33.4874L84.8653 33.6159ZM86.0353 29.1203C86.5127 27.2332 86.9676 25.3527 87.3892 23.4705L86.9013 23.3612C86.4809 25.2379 86.0271 27.1138 85.5506 28.9977L86.0353 29.1203ZM87.8809 21.1981C88.0392 20.439 88.1913 19.6791 88.3367 18.9177L87.8455 18.824C87.7008 19.5824 87.5492 20.3396 87.3914 21.0961L87.8809 21.1981ZM88.7515 16.629C89.0776 14.725 89.3571 12.8088 89.5789 10.872L89.0822 10.8151C88.8615 12.7417 88.5834 14.6487 88.2586 16.5446L88.7515 16.629ZM89.8151 8.55662C89.8838 7.78688 89.9429 7.01341 89.9917 6.23571L89.4927 6.20439C89.4441 6.9776 89.3854 7.74669 89.3171 8.51218L89.8151 8.55662ZM90.1058 3.91066C90.1398 2.94787 90.1575 1.97797 90.1575 1H89.6575C89.6575 1.97196 89.64 2.93598 89.6062 3.89302L90.1058 3.91066Z" fill="black"/>
</svg>
